<svg width="20" height="20" viewBox="0 0 20 20" fill="none" xmlns="http://www.w3.org/2000/svg">
<path d="M8.28632 1.875H11.7137C13.2451 1.87499 14.4582 1.87498 15.4075 2.00261C16.3845 2.13397 17.1753 2.41073 17.799 3.03437C18.4226 3.65801 18.6994 4.4488 18.8307 5.42581C18.9584 6.37516 18.9583 7.58819 18.9583 9.11966V10.8803C18.9583 12.4118 18.9584 13.6248 18.8307 14.5742C18.6994 15.5512 18.4226 16.342 17.799 16.9656C17.1753 17.5893 16.3845 17.866 15.4075 17.9974C14.4582 18.125 13.2451 18.125 11.7137 18.125H10.8333C10.4882 18.125 10.2083 17.8452 10.2083 17.5C10.2083 17.1548 10.4882 16.875 10.8333 16.875H11.6667C13.2557 16.875 14.3846 16.8737 15.241 16.7585C16.0794 16.6458 16.5624 16.4344 16.9151 16.0817C17.2678 15.7291 17.4791 15.246 17.5919 14.4076C17.707 13.5512 17.7083 12.4224 17.7083 10.8333V9.16667C17.7083 7.57765 17.707 6.44876 17.5919 5.59237C17.4791 4.75397 17.2678 4.27093 16.9151 3.91825C16.5624 3.56558 16.0794 3.35419 15.241 3.24147C14.3846 3.12633 13.2557 3.125 11.6667 3.125H8.33333C6.74431 3.125 5.61543 3.12633 4.75904 3.24147C3.92063 3.35419 3.43759 3.56558 3.08492 3.91825C2.73224 4.27093 2.52085 4.75397 2.40813 5.59237C2.29299 6.44876 2.29166 7.57765 2.29166 9.16667C2.29166 9.51185 2.01184 9.79167 1.66666 9.79167C1.32149 9.79167 1.04166 9.51185 1.04166 9.16667L1.04166 9.11965C1.04165 7.58819 1.04164 6.37516 1.16928 5.42581C1.30063 4.4488 1.5774 3.65801 2.20103 3.03437C2.82467 2.41073 3.61546 2.13397 4.59248 2.00261C5.54182 1.87498 6.75485 1.87499 8.28632 1.875Z" fill="black"/>
<path d="M5.83333 10.2083C6.17851 10.2083 6.45833 10.4882 6.45833 10.8333V13.5417H9.16666C9.51184 13.5417 9.79166 13.8215 9.79166 14.1667C9.79166 14.5118 9.51184 14.7917 9.16666 14.7917H6.45833V17.5C6.45833 17.8452 6.17851 18.125 5.83333 18.125C5.48815 18.125 5.20833 17.8452 5.20833 17.5V14.7917H2.5C2.15482 14.7917 1.875 14.5118 1.875 14.1667C1.875 13.8215 2.15482 13.5417 2.5 13.5417H5.20833V10.8333C5.20833 10.4882 5.48815 10.2083 5.83333 10.2083Z" fill="black"/>
</svg>
