<svg width="20" height="20" viewBox="0 0 20 20" fill="none" xmlns="http://www.w3.org/2000/svg">
<path d="M8.28634 1.875H11.7137C13.2452 1.87499 14.4582 1.87498 15.4075 2.00261C16.3846 2.13397 17.1753 2.41073 17.799 3.03437C18.4226 3.65801 18.6994 4.4488 18.8307 5.42581C18.9584 6.37516 18.9584 7.58819 18.9584 9.11966V10.8803C18.9584 12.4118 18.9584 13.6248 18.8307 14.5742C18.6994 15.5512 18.4226 16.342 17.799 16.9656C17.1753 17.5893 16.3846 17.866 15.4075 17.9974C14.4582 18.125 13.2452 18.125 11.7137 18.125H10.8334C10.4882 18.125 10.2084 17.8452 10.2084 17.5C10.2084 17.1548 10.4882 16.875 10.8334 16.875H11.6667C13.2557 16.875 14.3846 16.8737 15.241 16.7585C16.0794 16.6458 16.5624 16.4344 16.9151 16.0817C17.2678 15.7291 17.4792 15.246 17.5919 14.4076C17.707 13.5512 17.7084 12.4224 17.7084 10.8333V9.16667C17.7084 7.57765 17.707 6.44876 17.5919 5.59237C17.4792 4.75397 17.2678 4.27093 16.9151 3.91825C16.5624 3.56558 16.0794 3.35419 15.241 3.24147C14.3846 3.12633 13.2557 3.125 11.6667 3.125H8.33335C6.74434 3.125 5.61545 3.12633 4.75906 3.24147C3.92065 3.35419 3.43762 3.56558 3.08494 3.91825C2.73227 4.27093 2.52087 4.75397 2.40815 5.59237C2.29301 6.44876 2.29169 7.57765 2.29169 9.16667C2.29169 9.51185 2.01187 9.79167 1.66669 9.79167C1.32151 9.79167 1.04169 9.51185 1.04169 9.16667L1.04169 9.11965C1.04167 7.58819 1.04166 6.37516 1.1693 5.42581C1.30066 4.4488 1.57742 3.65801 2.20106 3.03437C2.82469 2.41073 3.61548 2.13397 4.5925 2.00261C5.54185 1.87498 6.75487 1.87499 8.28634 1.875Z" fill="white"/>
<path d="M5.83335 10.2083C6.17853 10.2083 6.45835 10.4882 6.45835 10.8333V13.5417H9.16669C9.51187 13.5417 9.79169 13.8215 9.79169 14.1667C9.79169 14.5118 9.51187 14.7917 9.16669 14.7917H6.45835V17.5C6.45835 17.8452 6.17853 18.125 5.83335 18.125C5.48818 18.125 5.20835 17.8452 5.20835 17.5V14.7917H2.50002C2.15484 14.7917 1.87502 14.5118 1.87502 14.1667C1.87502 13.8215 2.15484 13.5417 2.50002 13.5417H5.20835V10.8333C5.20835 10.4882 5.48818 10.2083 5.83335 10.2083Z" fill="white"/>
</svg>
