<svg width="24" height="24" viewBox="0 0 24 24" fill="none" xmlns="http://www.w3.org/2000/svg">
<path fill-rule="evenodd" clip-rule="evenodd" d="M8.584 9.16524C8.58478 7.27905 10.1143 5.75 12.0007 5.75C13.8875 5.75 15.4173 7.27982 15.4173 9.16667C15.4173 11.0543 13.8874 12.5833 12.0007 12.5833H11.9811L11.9786 12.5833C10.0968 12.5771 8.57762 11.0465 8.584 9.16524ZM12.0007 7.25C10.9422 7.25 10.084 8.10824 10.084 9.16667L10.084 9.16952C10.08 10.2228 10.9299 11.0793 11.9825 11.0833H12.0007C13.0592 11.0833 13.9173 10.2257 13.9173 9.16667C13.9173 8.10824 13.0591 7.25 12.0007 7.25Z" fill="white"/>
<path d="M8.584 9.16524C8.58401 9.16476 8.58401 9.16429 8.58401 9.16381L9.334 9.16667H8.584C8.584 9.16619 8.584 9.16572 8.584 9.16524Z" fill="white"/>
<path d="M8.21667 14.9C9.19754 14.1644 10.4725 13.7501 12 13.75C13.5275 13.75 14.8025 14.1644 15.7833 14.9C16.763 15.6347 17.4054 16.6573 17.7226 17.7993C17.8335 18.1984 17.5998 18.6118 17.2007 18.7226C16.8016 18.8335 16.3882 18.5998 16.2774 18.2007C16.039 17.3427 15.5703 16.6152 14.8833 16.1C14.1975 15.5857 13.2503 15.25 12 15.25C10.7498 15.2501 9.80245 15.5857 9.11666 16.1C8.42966 16.6153 7.96098 17.3427 7.72264 18.2007C7.61178 18.5998 7.19837 18.8335 6.79927 18.7226C6.40016 18.6117 6.1665 18.1983 6.27736 17.7992C6.59458 16.6573 7.237 15.6348 8.21667 14.9Z" fill="white"/>
<path fill-rule="evenodd" clip-rule="evenodd" d="M1.25 12C1.25 6.06294 6.06294 1.25 12 1.25C17.9371 1.25 22.75 6.06294 22.75 12C22.75 17.9371 17.9371 22.75 12 22.75C6.06294 22.75 1.25 17.9371 1.25 12ZM12 2.75C6.89137 2.75 2.75 6.89137 2.75 12C2.75 17.1086 6.89137 21.25 12 21.25C17.1086 21.25 21.25 17.1086 21.25 12C21.25 6.89137 17.1086 2.75 12 2.75Z" fill="white"/>
</svg>
