<svg width="24" height="24" viewBox="0 0 24 24" fill="none" xmlns="http://www.w3.org/2000/svg">
<path d="M2.73442 11.4706C2.73442 6.382 6.83849 2.25 11.9096 2.25C14.2372 2.25 16.3635 3.12197 17.9803 4.55667C18.7229 5.21566 19.3585 5.99369 19.8577 6.86126C20.0699 7.23006 20.2574 7.61507 20.4181 8.014C20.5728 8.39824 20.3867 8.83514 20.0025 8.98984C19.6182 9.14455 19.1813 8.95847 19.0266 8.57423C18.8922 8.24041 18.7352 7.91814 18.5576 7.60933C18.1395 6.88271 17.6069 6.23077 16.9847 5.67863C15.631 4.47744 13.8554 3.75 11.9096 3.75C7.67451 3.75 4.23442 7.20282 4.23442 11.4706C4.23442 12.6797 4.51022 13.8219 5.00117 14.8387C5.26521 15.3856 5.27048 16.0683 4.90688 16.6278L3.5459 18.7218C3.41938 18.9327 3.57477 19.1912 3.80484 19.1912H7.85722C8.27143 19.1912 8.60722 19.527 8.60722 19.9412C8.60722 20.3554 8.27143 20.6912 7.85722 20.6912H3.80484C2.38224 20.6912 1.52963 19.1239 2.27482 17.9252L2.27881 17.9188L3.64918 15.8103C3.69498 15.7399 3.71297 15.6206 3.65037 15.4909C3.06325 14.2749 2.73442 12.9102 2.73442 11.4706Z" fill="white"/>
<path fill-rule="evenodd" clip-rule="evenodd" d="M9.50953 15.7057C9.50953 12.3715 12.1991 9.66162 15.5253 9.66162C18.8515 9.66162 21.541 12.3715 21.541 15.7057C21.541 16.6373 21.3307 17.5218 20.9544 18.3118L21.7819 19.585L21.7859 19.5914C22.3667 20.5257 21.7031 21.7499 20.5907 21.7499H15.5253C12.1991 21.7499 9.50953 19.04 9.50953 15.7057ZM15.5253 11.1616C13.0351 11.1616 11.0095 13.1923 11.0095 15.7057C11.0095 18.2192 13.0351 20.2499 15.5253 20.2499H20.425L19.6661 19.0822C19.3793 18.6409 19.387 18.1086 19.5898 17.6886C19.8786 17.0904 20.041 16.4182 20.041 15.7057C20.041 13.1923 18.0154 11.1616 15.5253 11.1616Z" fill="white"/>
</svg>
