<svg width="24" height="24" viewBox="0 0 24 24" fill="none" xmlns="http://www.w3.org/2000/svg">
<path fill-rule="evenodd" clip-rule="evenodd" d="M16 1.25C16.4142 1.25 16.75 1.58579 16.75 2V3.36133C17.4526 3.44463 18.0559 3.59446 18.6104 3.87695C19.6923 4.42822 20.5718 5.30773 21.123 6.38965C21.4584 7.04778 21.6078 7.77513 21.6797 8.65527C21.7509 9.5266 21.75 10.6124 21.75 12V14C21.75 15.3876 21.7509 16.4734 21.6797 17.3447C21.6078 18.2249 21.4584 18.9522 21.123 19.6104C20.5718 20.6923 19.6923 21.5718 18.6104 22.123C17.9522 22.4584 17.2249 22.6078 16.3447 22.6797C15.4734 22.7509 14.3876 22.75 13 22.75H11C9.61244 22.75 8.5266 22.7509 7.65527 22.6797C6.77513 22.6078 6.04778 22.4584 5.38965 22.123C4.30774 21.5718 3.42822 20.6923 2.87695 19.6104C2.54162 18.9522 2.39222 18.2249 2.32031 17.3447C2.24915 16.4734 2.25 15.3876 2.25 14V12C2.25 10.6124 2.24915 9.5266 2.32031 8.65527C2.39222 7.77513 2.54162 7.04778 2.87695 6.38965C3.42822 5.30773 4.30774 4.42822 5.38965 3.87695C5.94407 3.59446 6.54742 3.44463 7.25 3.36133V2C7.25 1.58579 7.58579 1.25 8 1.25C8.41421 1.25 8.75 1.58579 8.75 2V3.26855C9.39824 3.25186 10.1413 3.25 11 3.25H13C13.8587 3.25 14.6018 3.25186 15.25 3.26855V2C15.25 1.58579 15.5858 1.25 16 1.25ZM8 8.75C7.58579 8.75 7.25 9.08579 7.25 9.5C7.25 9.91421 7.58579 10.25 8 10.25H16C16.4142 10.25 16.75 9.91421 16.75 9.5C16.75 9.08579 16.4142 8.75 16 8.75H8Z" fill="#6874E8"/>
</svg>
