<svg width="24" height="24" viewBox="0 0 24 24" fill="none" xmlns="http://www.w3.org/2000/svg">
<path d="M8 8.75C7.58579 8.75 7.25 9.08579 7.25 9.5C7.25 9.91421 7.58579 10.25 8 10.25H16C16.4142 10.25 16.75 9.91421 16.75 9.5C16.75 9.08579 16.4142 8.75 16 8.75H8Z" fill="white"/>
<path fill-rule="evenodd" clip-rule="evenodd" d="M8.75 2C8.75 1.58579 8.41421 1.25 8 1.25C7.58579 1.25 7.25 1.58579 7.25 2V3.36076C6.54739 3.44406 5.944 3.59421 5.38955 3.87671C4.30762 4.42798 3.42798 5.30762 2.87671 6.38955C2.54138 7.04768 2.39252 7.77479 2.32061 8.65494C2.24999 9.51929 2.25 10.5947 2.25 11.9664V14.0336C2.25 15.4053 2.24999 16.4807 2.32061 17.3451C2.39252 18.2252 2.54138 18.9523 2.87671 19.6104C3.42798 20.6924 4.30762 21.572 5.38955 22.1233C6.04768 22.4586 6.77479 22.6075 7.65494 22.6794C8.51927 22.75 9.59469 22.75 10.9664 22.75H13.0336C14.4053 22.75 15.4807 22.75 16.3451 22.6794C17.2252 22.6075 17.9523 22.4586 18.6104 22.1233C19.6924 21.572 20.572 20.6924 21.1233 19.6104C21.4586 18.9523 21.6075 18.2252 21.6794 17.3451C21.75 16.4807 21.75 15.4053 21.75 14.0336V11.9664C21.75 10.5947 21.75 9.51927 21.6794 8.65494C21.6075 7.77479 21.4586 7.04768 21.1233 6.38955C20.572 5.30762 19.6924 4.42798 18.6104 3.87671C18.056 3.59421 17.4526 3.44406 16.75 3.36076V2C16.75 1.58579 16.4142 1.25 16 1.25C15.5858 1.25 15.25 1.58579 15.25 2V3.26647C14.6102 3.24999 13.878 3.25 13.0336 3.25H10.9664C10.122 3.25 9.38977 3.24999 8.75 3.26647V2ZM6.07054 5.21322C6.48197 5.00359 6.9897 4.87996 7.77708 4.81563C8.57322 4.75058 9.58749 4.75 11 4.75H13C14.4125 4.75 15.4268 4.75058 16.2229 4.81563C17.0103 4.87996 17.518 5.00359 17.9295 5.21322C18.7291 5.62068 19.3793 6.27085 19.7868 7.07054C19.9964 7.48197 20.12 7.9897 20.1844 8.77708C20.2494 9.57322 20.25 10.5875 20.25 12V14C20.25 15.4125 20.2494 16.4268 20.1844 17.2229C20.12 18.0103 19.9964 18.518 19.7868 18.9295C19.3793 19.7291 18.7291 20.3793 17.9295 20.7868C17.518 20.9964 17.0103 21.12 16.2229 21.1844C15.4268 21.2494 14.4125 21.25 13 21.25H11C9.58749 21.25 8.57322 21.2494 7.77708 21.1844C6.9897 21.12 6.48197 20.9964 6.07054 20.7868C5.27085 20.3793 4.62068 19.7291 4.21322 18.9295C4.00359 18.518 3.87996 18.0103 3.81563 17.2229C3.75058 16.4268 3.75 15.4125 3.75 14V12C3.75 10.5875 3.75058 9.57322 3.81563 8.77708C3.87996 7.9897 4.00359 7.48197 4.21322 7.07054C4.62068 6.27085 5.27085 5.62068 6.07054 5.21322Z" fill="white"/>
</svg>
