<svg width="20" height="20" viewBox="0 0 20 20" fill="none" xmlns="http://www.w3.org/2000/svg">
<path d="M14.1667 11.1806C14.1667 11.5066 14.1667 11.6695 14.2193 11.8104C14.2657 11.9349 14.3413 12.0465 14.4396 12.1359C14.5509 12.237 14.7022 12.2975 15.0048 12.4186L16.5048 13.0186C17.1174 13.2636 17.4237 13.3861 17.6696 13.335C17.8846 13.2904 18.0733 13.1626 18.1946 12.9796C18.3334 12.7703 18.3334 12.4404 18.3334 11.7806V8.60492C18.3334 7.83413 18.3334 7.44873 18.1717 7.22861C18.0308 7.03667 17.8145 6.91419 17.5774 6.89209C17.3054 6.86675 16.975 7.06503 16.314 7.4616L14.814 8.3616C14.578 8.50323 14.4599 8.57405 14.3742 8.67155C14.2983 8.75783 14.2411 8.85887 14.2062 8.96832C14.1667 9.092 14.1667 9.22964 14.1667 9.50492V11.1806Z" stroke="white" stroke-width="1.25"/>
<path d="M1.66669 8.66667C1.66669 6.79983 1.66669 5.86641 2.03 5.15337C2.34958 4.52616 2.85951 4.01623 3.48672 3.69665C4.19976 3.33334 5.13318 3.33334 7.00002 3.33334H8.83335C10.7002 3.33334 11.6336 3.33334 12.3467 3.69665C12.9739 4.01623 13.4838 4.52616 13.8034 5.15337C14.1667 5.86641 14.1667 6.79983 14.1667 8.66667V11.3333C14.1667 13.2002 14.1667 14.1336 13.8034 14.8466C13.4838 15.4738 12.9739 15.9838 12.3467 16.3034C11.6336 16.6667 10.7002 16.6667 8.83335 16.6667H7.00002C5.13318 16.6667 4.19976 16.6667 3.48672 16.3034C2.85951 15.9838 2.34958 15.4738 2.03 14.8466C1.66669 14.1336 1.66669 13.2002 1.66669 11.3333V8.66667Z" stroke="white" stroke-width="1.25"/>
</svg>
