<svg width="24" height="24" viewBox="0 0 24 24" fill="none" xmlns="http://www.w3.org/2000/svg">
<path d="M6.25 9.5C6.25 9.08579 6.58579 8.75 7 8.75H11C11.4142 8.75 11.75 9.08579 11.75 9.5C11.75 9.91421 11.4142 10.25 11 10.25H7C6.58579 10.25 6.25 9.91421 6.25 9.5Z" fill="white"/>
<path d="M6.25 13C6.25 12.5858 6.58579 12.25 7 12.25H15C15.4142 12.25 15.75 12.5858 15.75 13C15.75 13.4142 15.4142 13.75 15 13.75H7C6.58579 13.75 6.25 13.4142 6.25 13Z" fill="white"/>
<path d="M6.25 16.5C6.25 16.0858 6.58579 15.75 7 15.75H11C11.4142 15.75 11.75 16.0858 11.75 16.5C11.75 16.9142 11.4142 17.25 11 17.25H7C6.58579 17.25 6.25 16.9142 6.25 16.5Z" fill="white"/>
<path fill-rule="evenodd" clip-rule="evenodd" d="M7.5 1.25C7.91421 1.25 8.25 1.58579 8.25 2V2.78543C9.07589 2.75018 10.0587 2.75 11.25 2.75V2C11.25 1.58579 11.5858 1.25 12 1.25C12.4142 1.25 12.75 1.58579 12.75 2V2.75C13.9413 2.75 14.9241 2.75018 15.75 2.78543V2C15.75 1.58579 16.0858 1.25 16.5 1.25C16.9142 1.25 17.25 1.58579 17.25 2V2.9186C17.8296 3.0081 18.344 3.14784 18.826 3.37003C20.2855 4.0429 21.4571 5.21448 22.13 6.67405C22.4587 7.38707 22.6069 8.17106 22.679 9.13215C22.75 10.0791 22.75 11.2564 22.75 12.769V12.831C22.75 14.3436 22.75 15.5209 22.679 16.4678C22.6069 17.4289 22.4587 18.2129 22.13 18.926C21.4571 20.3855 20.2855 21.5571 18.826 22.23C18.1129 22.5587 17.3289 22.7069 16.3678 22.779C15.4209 22.85 14.2436 22.85 12.731 22.85H11.269C9.75643 22.85 8.57909 22.85 7.63215 22.779C6.67106 22.7069 5.88707 22.5587 5.17405 22.23C3.71448 21.5571 2.5429 20.3855 1.87003 18.926C1.54132 18.2129 1.39305 17.4289 1.32099 16.4678C1.24999 15.5209 1.25 14.3436 1.25 12.831V12.769C1.25 11.2564 1.24999 10.0791 1.32099 9.13215C1.39305 8.17106 1.54132 7.38707 1.87003 6.67405C2.5429 5.21448 3.71448 4.0429 5.17405 3.37003C5.65601 3.14784 6.1704 3.0081 6.75 2.9186V2C6.75 1.58579 7.08579 1.25 7.5 1.25ZM6.75 4.44048C6.37882 4.51145 6.07439 4.60669 5.80204 4.73225C4.66682 5.25559 3.75559 6.16682 3.23225 7.30204C3.00982 7.78453 2.88252 8.36771 2.81679 9.24431C2.75049 10.1286 2.75 11.2499 2.75 12.8C2.75 14.3501 2.75049 15.4714 2.81679 16.3557C2.88252 17.2323 3.00982 17.8155 3.23225 18.298C3.75559 19.4332 4.66682 20.3444 5.80204 20.8678C6.28453 21.0902 6.86771 21.2175 7.74431 21.2832C8.62861 21.3495 9.74987 21.35 11.3 21.35H12.7C14.2501 21.35 15.3714 21.3495 16.2557 21.2832C17.1323 21.2175 17.7155 21.0902 18.198 20.8678C19.3332 20.3444 20.2444 19.4332 20.7678 18.298C20.9902 17.8155 21.1175 17.2323 21.1832 16.3557C21.2495 15.4714 21.25 14.3501 21.25 12.8C21.25 11.2499 21.2495 10.1286 21.1832 9.24431C21.1175 8.36771 20.9902 7.78453 20.7678 7.30204C20.2444 6.16682 19.3332 5.25559 18.198 4.73225C17.9256 4.60669 17.6212 4.51145 17.25 4.44048V5C17.25 5.41421 16.9142 5.75 16.5 5.75C16.0858 5.75 15.75 5.41421 15.75 5V4.28682C14.9611 4.25081 13.9948 4.25002 12.75 4.25V5C12.75 5.41421 12.4142 5.75 12 5.75C11.5858 5.75 11.25 5.41421 11.25 5V4.25C10.0052 4.25002 9.03892 4.25081 8.25 4.28682V5C8.25 5.41421 7.91421 5.75 7.5 5.75C7.08579 5.75 6.75 5.41421 6.75 5V4.44048Z" fill="white"/>
</svg>
